<svg width="192.239288" height="32.185547" viewBox="0 0 192.239 32.1855" fill="none" xmlns="http://www.w3.org/2000/svg" xmlns:xlink="http://www.w3.org/1999/xlink">
	<desc>
			Created with Pixso.
	</desc>
	<defs/>
	<path id="Интерьер." d="M0 0L4.60547 0L4.60547 17.8945L18.1406 0L22.4912 0L22.4912 25.1982L17.8857 25.1982L17.8857 7.33887L4.35059 25.1982L0 25.1982L0 0ZM29.0471 5.97656L33.5471 5.97656L33.5471 13.79L43.2326 13.79L43.2326 5.97656L47.7326 5.97656L47.7326 25.1982L43.2326 25.1982L43.2326 17.6045L33.5471 17.6045L33.5471 25.1982L29.0471 25.1982L29.0471 5.97656ZM69.0105 9.79102L62.2781 9.79102L62.2781 25.1982L57.7781 25.1982L57.7781 9.79102L51.0105 9.79102L51.0105 5.97656L69.0105 5.97656L69.0105 9.79102ZM89.4551 15.6973Q89.4551 16.1631 89.3848 17.0244L74.3027 17.0244Q74.6982 19.1514 76.3682 20.3906Q78.0469 21.6299 80.5254 21.6299Q83.6982 21.6299 85.7461 19.5469L88.1631 22.3154Q86.8623 23.8623 84.8848 24.6621Q82.9072 25.4531 80.4199 25.4531Q77.2559 25.4531 74.8389 24.1963Q72.4307 22.9307 71.1123 20.6807Q69.8027 18.4307 69.8027 15.583Q69.8027 12.7793 71.0771 10.5293Q72.3516 8.2793 74.6191 7.02246Q76.8955 5.75684 79.7344 5.75684Q82.5469 5.75684 84.7529 7.00488Q86.9678 8.24414 88.207 10.4941Q89.4551 12.7441 89.4551 15.6973ZM79.7344 9.36035Q77.5723 9.36035 76.0781 10.6436Q74.584 11.918 74.2676 14.0361L85.1748 14.0361Q84.8848 11.9531 83.4082 10.6611Q81.9316 9.36035 79.7344 9.36035ZM105.039 5.75684Q107.852 5.75684 110.067 6.9873Q112.282 8.20898 113.538 10.4414Q114.795 12.6738 114.795 15.583Q114.795 18.501 113.538 20.751Q112.282 23.001 110.067 24.2314Q107.852 25.4531 105.039 25.4531Q101.155 25.4531 98.8871 22.8604L98.8871 32.1855L94.3871 32.1855L94.3871 5.97656L98.6674 5.97656L98.6674 8.49023Q99.7836 7.12793 101.418 6.44238Q103.062 5.75684 105.039 5.75684ZM104.538 21.5947Q107.026 21.5947 108.625 19.9424Q110.225 18.29 110.225 15.583Q110.225 12.8848 108.625 11.2324Q107.026 9.57129 104.538 9.57129Q102.921 9.57129 101.62 10.3096Q100.328 11.0479 99.5726 12.4189Q98.8168 13.79 98.8168 15.583Q98.8168 17.3848 99.5726 18.7559Q100.328 20.1182 101.62 20.8564Q102.921 21.5947 104.538 21.5947ZM128.913 12.3135Q132.587 12.3135 134.547 13.9658Q136.507 15.6182 136.507 18.6504Q136.507 21.8145 134.345 23.5459Q132.192 25.2686 128.263 25.2334L119.263 25.1982L119.263 5.97656L123.763 5.97656L123.763 12.2783L128.913 12.3135ZM127.868 21.9199Q129.845 21.9551 130.891 21.0938Q131.937 20.2324 131.937 18.5713Q131.937 16.9541 130.926 16.1982Q129.915 15.4424 127.868 15.4072L123.763 15.3721L123.763 21.8848L127.868 21.9199ZM158.467 15.6973Q158.467 16.1631 158.397 17.0244L143.315 17.0244Q143.71 19.1514 145.38 20.3906Q147.059 21.6299 149.537 21.6299Q152.71 21.6299 154.758 19.5469L157.175 22.3154Q155.874 23.8623 153.897 24.6621Q151.919 25.4531 149.432 25.4531Q146.268 25.4531 143.851 24.1963Q141.443 22.9307 140.124 20.6807Q138.815 18.4307 138.815 15.583Q138.815 12.7793 140.089 10.5293Q141.364 8.2793 143.631 7.02246Q145.908 5.75684 148.746 5.75684Q151.559 5.75684 153.765 7.00488Q155.98 8.24414 157.219 10.4941Q158.467 12.7441 158.467 15.6973ZM148.746 9.36035Q146.584 9.36035 145.09 10.6436Q143.596 11.918 143.28 14.0361L154.187 14.0361Q153.897 11.9531 152.42 10.6611Q150.944 9.36035 148.746 9.36035ZM174.051 5.75684Q176.864 5.75684 179.079 6.9873Q181.294 8.20898 182.55 10.4414Q183.807 12.6738 183.807 15.583Q183.807 18.501 182.55 20.751Q181.294 23.001 179.079 24.2314Q176.864 25.4531 174.051 25.4531Q170.167 25.4531 167.899 22.8604L167.899 32.1855L163.399 32.1855L163.399 5.97656L167.679 5.97656L167.679 8.49023Q168.796 7.12793 170.43 6.44238Q172.074 5.75684 174.051 5.75684ZM173.55 21.5947Q176.038 21.5947 177.637 19.9424Q179.237 18.29 179.237 15.583Q179.237 12.8848 177.637 11.2324Q176.038 9.57129 173.55 9.57129Q171.933 9.57129 170.632 10.3096Q169.34 11.0479 168.585 12.4189Q167.829 13.79 167.829 15.583Q167.829 17.3848 168.585 18.7559Q169.34 20.1182 170.632 20.8564Q171.933 21.5947 173.55 21.5947ZM189.286 25.4531Q188.056 25.4531 187.194 24.6094Q186.333 23.7568 186.333 22.4648Q186.333 21.1289 187.177 20.3027Q188.021 19.4766 189.286 19.4766Q190.543 19.4766 191.387 20.3027Q192.239 21.1289 192.239 22.4648Q192.239 23.7568 191.369 24.6094Q190.508 25.4531 189.286 25.4531Z" fill="#000000" fill-opacity="1.000000" fill-rule="evenodd"/>
</svg>
